<?xml version="1.0" encoding="UTF-8"?>
<svg xmlns="http://www.w3.org/2000/svg" viewBox="0 0 480 600" preserveAspectRatio="xMidYMid slice">
  <defs>
    <linearGradient id="g2" x1="0" y1="0" x2="0" y2="1">
      <stop offset="0%" stop-color="#0B0B1E" />
      <stop offset="100%" stop-color="#0B0B0D" />
    </linearGradient>
  </defs>
  <rect width="480" height="600" fill="url(#g2)" />

  <!-- subtle grain -->
  <rect width="480" height="600" fill="#000" opacity="0.08" />

  <!-- motif -->
  <g><rect x="170" y="340" width="20" height="20" fill="#22D3EE" opacity="0.25" /><rect x="200" y="340" width="20" height="20" fill="#22D3EE" opacity="0.5" /><rect x="230" y="340" width="20" height="20" fill="#22D3EE" opacity="0.75" /><rect x="260" y="340" width="20" height="20" fill="#22D3EE" opacity="0.25" /><rect x="290" y="340" width="20" height="20" fill="#22D3EE" opacity="0.5" /><rect x="170" y="370" width="20" height="20" fill="#22D3EE" opacity="0.5" /><rect x="200" y="370" width="20" height="20" fill="#22D3EE" opacity="0.75" /><rect x="230" y="370" width="20" height="20" fill="#22D3EE" opacity="0.25" /><rect x="260" y="370" width="20" height="20" fill="#22D3EE" opacity="0.5" /><rect x="290" y="370" width="20" height="20" fill="#22D3EE" opacity="0.75" /><rect x="170" y="400" width="20" height="20" fill="#22D3EE" opacity="0.75" /><rect x="200" y="400" width="20" height="20" fill="#22D3EE" opacity="0.25" /><rect x="230" y="400" width="20" height="20" fill="#22D3EE" opacity="0.5" /><rect x="260" y="400" width="20" height="20" fill="#22D3EE" opacity="0.75" /><rect x="290" y="400" width="20" height="20" fill="#22D3EE" opacity="0.25" /><rect x="170" y="430" width="20" height="20" fill="#22D3EE" opacity="0.25" /><rect x="200" y="430" width="20" height="20" fill="#22D3EE" opacity="0.5" /><rect x="230" y="430" width="20" height="20" fill="#22D3EE" opacity="0.75" /><rect x="260" y="430" width="20" height="20" fill="#22D3EE" opacity="0.25" /><rect x="290" y="430" width="20" height="20" fill="#22D3EE" opacity="0.5" /><rect x="170" y="460" width="20" height="20" fill="#22D3EE" opacity="0.5" /><rect x="200" y="460" width="20" height="20" fill="#22D3EE" opacity="0.75" /><rect x="230" y="460" width="20" height="20" fill="#22D3EE" opacity="0.25" /><rect x="260" y="460" width="20" height="20" fill="#22D3EE" opacity="0.5" /><rect x="290" y="460" width="20" height="20" fill="#22D3EE" opacity="0.75" /></g>

  <!-- accent bar -->
  <rect x="40" y="60" width="40" height="3" fill="#22D3EE" />

  <!-- top eyebrow -->
  <text x="40" y="52" font-family="'Space Mono', 'Courier New', monospace" font-size="10" fill="#22D3EE" letter-spacing="2">
    URBAN · MANGAUNG JAMS
  </text>

  <!-- huge dance name -->
  <text x="40" y="118" font-family="Montserrat, 'Arial Black', sans-serif" font-weight="900" font-size="48" fill="#F4F1EC" letter-spacing="1">
    HIP-HOP
  </text>

  <!-- caption block at bottom -->
  <rect x="0" y="510" width="480" height="90" fill="#0B0B0D" opacity="0.75" />
  <text x="40" y="545" font-family="Montserrat, sans-serif" font-weight="700" font-size="18" fill="#F4F1EC">
    Breaking
  </text>
  <text x="40" y="573" font-family="Inter, sans-serif" font-size="13" fill="#F4F1EC" opacity="0.7">
    Floorwork. Power moves.
  </text>
  <text x="440" y="573" font-family="'Space Mono', monospace" font-size="10" fill="#22D3EE" text-anchor="end" letter-spacing="1">
    02 / 04
  </text>
</svg>
